<?xml version="1.0" encoding="UTF-8"?>
<svg width="46px" height="47px" viewBox="0 0 46 47" version="1.1" xmlns="http://www.w3.org/2000/svg" xmlns:xlink="http://www.w3.org/1999/xlink">
    <!-- Generator: Sketch 46.2 (44496) - http://www.bohemiancoding.com/sketch -->
    <title>icon-feature-money</title>
    <desc>Created with Sketch.</desc>
    <defs></defs>
    <g id="Page-1" stroke="none" stroke-width="1" fill="none" fill-rule="evenodd">
        <g id="Artboard" transform="translate(-35.000000, -408.000000)" fill-rule="nonzero" fill="#0086F3">
            <g id="icon-feature-money" transform="translate(35.767623, 408.512689)">
                <path d="M37.2094804,23.1627959 C35.3997829,20.479543 33.086118,18.4184373 31.2272012,16.7623291 C29.5610013,15.2779576 28.092033,13.9685982 27.7226221,12.8375262 C28.4978273,12.5347739 29.0488011,11.7804604 29.0488011,10.8992919 C29.0488011,10.0402544 28.5254468,9.3012555 27.7807824,8.98425083 L29.3180913,2.95469984 C29.482569,2.37265412 29.3774909,1.83504749 29.0290602,1.47811846 C28.6784164,1.11906486 28.1390393,1.00194753 27.549292,1.15686464 C27.5380494,1.15978593 27.5269839,1.1629728 27.5159184,1.16651376 C27.4870596,1.17572027 24.6214471,2.09052793 23.6692823,2.36397876 C23.0505876,2.54146951 21.9643974,2.54244328 21.3448174,2.36601482 C20.3826494,2.09185579 17.4866732,1.17333012 17.4575488,1.16403509 C17.4465718,1.16058265 17.4355063,1.15739578 17.4243523,1.15447449 C16.8343394,1.00053114 16.2950508,1.11826815 15.944584,1.47767584 C15.5941173,1.83708354 15.490013,2.37938195 15.6588283,2.96541125 C15.6607759,2.97249317 15.662989,2.97948658 15.6652021,2.98639145 L17.6164495,9.0029294 C16.8940046,9.32940615 16.3897715,10.0563658 16.3897715,10.8992919 C16.3897715,11.7804604 16.9407453,12.5348625 17.7159505,12.8375262 C17.3464511,13.9685097 15.8774828,15.2778691 14.2113714,16.7622406 C12.3523661,18.4183488 10.0387897,20.4794545 8.22909225,23.1627074 C6.09575085,26.3257607 5.05869145,29.7272093 5.05869145,33.561452 C5.05869145,37.0192905 6.44807662,40.1918158 8.97083538,42.4947693 C11.6725898,44.9610497 15.4471673,46.2646551 19.886472,46.2646551 L25.5520121,46.2646551 C29.9913168,46.2646551 33.7658943,44.9610497 36.4676487,42.4947693 C38.990496,40.1918158 40.3798812,37.0192019 40.3798812,33.561452 C40.3798812,29.7273863 39.3428218,26.3258492 37.2094804,23.1627959 L37.2094804,23.1627959 Z M24.1234993,11.6518349 C24.1229681,11.6518349 24.122437,11.6518349 24.1219058,11.6518349 L21.3169324,11.6518349 C21.3159586,11.6518349 21.3149848,11.6518349 21.3140996,11.6518349 L18.4701755,11.6518349 C18.0552633,11.6518349 17.717721,11.3142927 17.717721,10.8993804 C17.717721,10.4849107 18.0544665,10.1478111 18.4687592,10.1470144 C18.4692018,10.1470144 18.4696444,10.1471029 18.4699985,10.1471029 C18.4707067,10.1471029 18.4715034,10.1469259 18.4722116,10.1469259 L22.0085709,10.1469259 C22.0092791,10.1469259 22.0098987,10.1471029 22.0106069,10.1471029 C22.0114922,10.1471029 22.0124659,10.1469259 22.0134397,10.1469259 L23.4252215,10.1469259 C23.4261952,10.1469259 23.4270805,10.1471029 23.4280542,10.1471029 C23.4287624,10.1471029 23.4293821,10.1469259 23.4300903,10.1469259 L26.9684856,10.1469259 C27.3833979,10.1469259 27.7209401,10.4844681 27.7209401,10.8993804 C27.7209401,11.3142927 27.3833979,11.6518349 26.9684856,11.6518349 L24.1234993,11.6518349 L24.1234993,11.6518349 Z M16.9071947,2.41647353 C16.9387978,2.41417191 16.9932401,2.41594239 17.0744166,2.43577178 C17.3476019,2.52243684 20.0299695,3.37226784 20.9809835,3.64324 C21.837808,3.88712379 23.1793901,3.88606151 24.0355063,3.64049575 C24.9762516,3.37032031 27.6286981,2.52447289 27.9009981,2.43763079 C27.9809353,2.41797844 28.0348465,2.41603091 28.0666266,2.41806697 C28.068043,2.45188316 28.064325,2.51030904 28.0390071,2.59794786 C28.0371481,2.60449864 28.0352891,2.61113795 28.0336071,2.61777725 L26.4524788,8.81915345 L24.2777082,8.81915345 L24.7796396,6.81133917 C24.8686063,6.45564949 24.652342,6.0951795 24.2965638,6.00621282 C23.9413167,5.91742318 23.5804041,6.13359894 23.4914374,6.48928863 L22.9089491,8.81915345 L22.5292694,8.81915345 L21.9467811,6.48928863 C21.8578144,6.13351042 21.4970788,5.91715761 21.1416547,6.00621282 C20.7858765,6.09509098 20.5696122,6.45564949 20.6585789,6.81133917 L21.1605103,8.81915345 L18.9525432,8.81915345 L16.9321585,2.58865284 C16.9088766,2.5049976 16.9056898,2.44905039 16.9071947,2.41647353 Z M35.5724049,41.5141883 C33.1194916,43.753316 29.6544827,44.9368827 25.5520121,44.9368827 L19.886472,44.9368827 C15.7840899,44.9368827 12.319081,43.753316 9.86616775,41.5141883 C7.62234832,39.4659185 6.3865524,36.6416468 6.3865524,33.5615406 C6.3865524,25.5116049 11.419588,21.0277726 15.0946645,17.7537986 C17.075833,15.9888058 18.6911316,14.5494046 19.0562048,12.9796959 L20.3816756,12.9796959 L19.9648158,14.2303639 C19.8488493,14.5782634 20.0368744,14.9542251 20.384774,15.0701916 C20.4544424,15.0933849 20.5251731,15.1044505 20.5948416,15.1044505 C20.8728071,15.1044505 21.1318285,14.9284646 21.2246018,14.650322 L21.7815066,12.9796959 L23.6571545,12.9796959 L24.2140594,14.650322 C24.3068326,14.9285531 24.565854,15.1044505 24.8438196,15.1044505 C24.9133995,15.1044505 24.9842187,15.0933849 25.0538872,15.0701916 C25.4017867,14.9542251 25.5897233,14.5782634 25.4738453,14.2303639 L25.0569855,12.9796959 L26.3825448,12.9796959 C26.7476181,14.5494046 28.3629166,15.9888944 30.3440852,17.7537986 C34.0191617,21.0277726 39.0521973,25.5116049 39.0521973,33.5615406 C39.0520202,36.6416468 37.8163128,39.4659185 35.5724049,41.5141883 Z" id="Shape"></path>
                <path d="M22.719242,26.4353535 C24.2787705,26.4353535 25.5962741,27.2664174 25.5962741,28.2500968 C25.5962741,28.6167634 25.8935379,28.9140273 26.2602046,28.9140273 C26.6268712,28.9140273 26.924135,28.6167634 26.924135,28.2500968 C26.924135,26.6571063 25.4147998,25.3764286 23.3831725,25.1450267 L23.3831725,24.355038 C23.3831725,23.9883713 23.0859087,23.6911075 22.719242,23.6911075 C22.3525754,23.6911075 22.0553116,23.9883713 22.0553116,24.355038 L22.0553116,25.1450267 C20.0236843,25.3764286 18.514349,26.6571063 18.514349,28.2500968 C18.514349,30.0123453 20.3613151,31.392701 22.719242,31.392701 C24.2787705,31.392701 25.5962741,32.2237649 25.5962741,33.2074443 C25.5962741,34.1911237 24.2787705,35.0221876 22.719242,35.0221876 C21.1597136,35.0221876 19.84221,34.1911237 19.84221,33.2074443 C19.84221,32.8407776 19.5449462,32.5435138 19.1782795,32.5435138 C18.8116129,32.5435138 18.514349,32.8407776 18.514349,33.2074443 C18.514349,34.8004348 20.0236843,36.0811125 22.0553116,36.3125144 L22.0553116,37.1025031 C22.0553116,37.4691698 22.3525754,37.7664336 22.719242,37.7664336 C23.0859087,37.7664336 23.3831725,37.4691698 23.3831725,37.1025031 L23.3831725,36.3125144 C25.4147998,36.0811125 26.924135,34.8004348 26.924135,33.2074443 C26.924135,31.4451958 25.077169,30.0648401 22.719242,30.0648401 C21.1597136,30.0648401 19.84221,29.2337762 19.84221,28.2500968 C19.84221,27.2664174 21.1597136,26.4353535 22.719242,26.4353535 Z" id="Shape"></path>
            </g>
        </g>
    </g>
</svg>