<?xml version="1.0" encoding="UTF-8"?>
<svg width="46px" height="45px" viewBox="0 0 46 45" version="1.1" xmlns="http://www.w3.org/2000/svg" xmlns:xlink="http://www.w3.org/1999/xlink">
    <!-- Generator: Sketch 46.2 (44496) - http://www.bohemiancoding.com/sketch -->
    <title>icon-feature-friendly</title>
    <desc>Created with Sketch.</desc>
    <defs></defs>
    <g id="Page-1" stroke="none" stroke-width="1" fill="none" fill-rule="evenodd">
        <g id="Artboard" transform="translate(-36.000000, -601.000000)" fill-rule="nonzero" fill="#0086F3">
            <g id="icon-feature-friendly" transform="translate(36.267623, 601.000000)">
                <g id="Group-2" transform="translate(1.000000, 0.000000)">
                    <path d="M6.49014461,32.8324963 C4.38504712,32.8324963 2.67241249,34.5451309 2.67241249,36.6502284 C2.67241249,38.7553259 4.38504712,40.4679605 6.49014461,40.4679605 C8.59524211,40.4679605 10.3078767,38.7553259 10.3078767,36.6502284 C10.3078767,34.5451309 8.59524211,32.8324963 6.49014461,32.8324963 Z M6.49014461,38.9408677 C5.22723883,38.9408677 4.19950534,37.9131342 4.19950534,36.6502284 C4.19950534,35.3873226 5.22723883,34.3595891 6.49014461,34.3595891 C7.7530504,34.3595891 8.78078389,35.3873226 8.78078389,36.6502284 C8.78078389,37.9131342 7.7530504,38.9408677 6.49014461,38.9408677 Z" id="Shape"></path>
                    <path d="M42.3768266,26.7241249 C42.3768266,24.8190765 41.3269503,23.9280179 40.303798,23.4920329 C41.1055218,22.7918608 41.6132802,21.7618367 41.6132802,20.6157535 C41.6132802,18.510656 39.9006455,16.7980214 37.795548,16.7980214 L26.8264401,16.7980214 L27.3830654,14.194328 C28.1259961,10.7209554 27.6380899,6.77571098 27.4716368,5.64948 C27.0761198,2.98241234 24.7175249,0 22.1527724,0 L21.9702848,0 C20.7516647,0 18.7068874,0.6940637 18.7068874,5.34482498 C18.7068874,11.4707579 17.1782675,14.2737369 15.896273,15.5458052 C14.6387121,16.7934401 13.4292545,16.7796962 13.3620624,16.7980214 L12.598516,16.7980214 L12.598516,15.2709285 L0.381773213,15.2709285 L0.381773213,44.2856927 L12.598516,44.2856927 L12.598516,42.7585998 L33.9778159,42.7585998 C36.0829134,42.7585998 37.795548,41.0459652 37.795548,38.9408677 C37.795548,38.0520996 37.4901295,37.2335779 36.9793169,36.5837999 C38.7461633,36.2501301 40.0861873,34.694786 40.0861873,32.8324963 C40.0861873,31.9437282 39.7807687,31.1252065 39.2699562,30.4754285 C41.0368026,30.1417587 42.3768266,28.5864146 42.3768266,26.7241249 Z M1.90886606,42.7585998 L1.90886606,16.7980214 L11.0714232,16.7980214 L11.0714232,42.7585998 L1.90886606,42.7585998 Z M38.5590945,29.0147642 L36.2684552,29.0147642 L30.1600838,29.0147642 C29.7386062,29.0147642 29.3965374,29.3560694 29.3965374,29.7783106 C29.3965374,30.2005517 29.7386062,30.541857 30.1600838,30.541857 L36.2684552,30.541857 C37.531361,30.541857 38.5590945,31.5695905 38.5590945,32.8324963 C38.5590945,34.0954021 37.531361,35.1231356 36.2684552,35.1231356 L34.7413623,35.1231356 L33.9778159,35.1231356 L28.6329909,35.1231356 C28.2115133,35.1231356 27.8694445,35.4644408 27.8694445,35.886682 C27.8694445,36.3089231 28.2115133,36.6502284 28.6329909,36.6502284 L33.9778159,36.6502284 C35.2407217,36.6502284 36.2684552,37.6779619 36.2684552,38.9408677 C36.2684552,40.2037735 35.2407217,41.231507 33.9778159,41.231507 L12.598516,41.231507 L12.598516,18.3251142 L13.3383925,18.3243507 C13.4124565,18.338858 15.1861748,18.362528 16.9133169,16.6873071 C19.1169118,14.5524313 20.2339803,10.7362263 20.2339803,5.34482498 C20.2339803,3.9192838 20.4592265,1.52709285 21.9702848,1.52709285 L22.1527724,1.52709285 C23.8562445,1.52709285 25.6711944,3.91699316 25.9605785,5.87243555 C26.1186326,6.93529218 26.5790511,10.6522362 25.8895686,13.8744021 L24.9389533,18.3251142 L37.795548,18.3251142 C39.0584538,18.3251142 40.0861873,19.3528477 40.0861873,20.6157535 C40.0861873,21.8786593 39.0584538,22.9063928 37.795548,22.9063928 L36.2684552,22.9063928 L35.5049088,22.9063928 L30.1600838,22.9063928 C29.7386062,22.9063928 29.3965374,23.247698 29.3965374,23.6699392 C29.3965374,24.0921803 29.7386062,24.4334856 30.1600838,24.4334856 L35.5049088,24.4334856 C36.1791203,24.4334856 37.6619274,24.4640275 38.4476167,24.5808501 C40.4412364,24.8763425 40.8497337,25.6513421 40.8497337,26.7241249 C40.8497337,27.9870307 39.8220003,29.0147642 38.5590945,29.0147642 Z" id="Shape"></path>
                </g>
            </g>
        </g>
    </g>
</svg>