<?xml version="1.0" encoding="UTF-8"?>
<svg width="46px" height="46px" viewBox="0 0 46 46" version="1.1" xmlns="http://www.w3.org/2000/svg" xmlns:xlink="http://www.w3.org/1999/xlink">
    <!-- Generator: Sketch 46.2 (44496) - http://www.bohemiancoding.com/sketch -->
    <title>icon-feature-time</title>
    <desc>Created with Sketch.</desc>
    <defs></defs>
    <g id="Page-1" stroke="none" stroke-width="1" fill="none" fill-rule="evenodd">
        <g id="Artboard" transform="translate(-36.000000, -538.000000)" fill-rule="nonzero" fill="#0086F3">
            <g id="icon-feature-time" transform="translate(36.267623, 538.685683)">
                <g id="Group-3">
                    <path d="M22.5,0 C10.0935,0 0,10.0935 0,22.5 C0,34.9065 10.0935,45 22.5,45 C34.9065,45 45,34.9065 45,22.5 C45,10.0935 34.9065,0 22.5,0 Z M22.5,43.5 C10.92075,43.5 1.5,34.07925 1.5,22.5 C1.5,10.92075 10.92075,1.5 22.5,1.5 C34.07925,1.5 43.5,10.92075 43.5,22.5 C43.5,34.07925 34.07925,43.5 22.5,43.5 Z" id="Shape"></path>
                    <path d="M22.75,20.3565 L22.75,12.75 C22.75,12.33525 22.414,12 22,12 C21.586,12 21.25,12.33525 21.25,12.75 L21.25,20.3565 C20.20075,20.6295 19.3795,21.45075 19.1065,22.5 L13.75,22.5 C13.336,22.5 13,22.83525 13,23.25 C13,23.66475 13.336,24 13.75,24 L19.1065,24 C19.44175,25.29 20.6065,26.25 22,26.25 C23.6545,26.25 25,24.9045 25,23.25 C25,21.85575 24.04,20.69175 22.75,20.3565 Z M22,24.75 C21.17275,24.75 20.5,24.07725 20.5,23.25 C20.5,22.42275 21.17275,21.75 22,21.75 C22.82725,21.75 23.5,22.42275 23.5,23.25 C23.5,24.07725 22.82725,24.75 22,24.75 Z" id="Shape"></path>
                    <path d="M22.75,8.25 C23.164,8.25 23.5,7.91475 23.5,7.5 L23.5,6.75 C23.5,6.33525 23.164,6 22.75,6 C22.336,6 22,6.33525 22,6.75 L22,7.5 C22,7.91475 22.336,8.25 22.75,8.25 Z" id="Shape"></path>
                    <path d="M22.75,38 C22.336,38 22,38.33525 22,38.75 L22,39.5 C22,39.91475 22.336,40.25 22.75,40.25 C23.164,40.25 23.5,39.91475 23.5,39.5 L23.5,38.75 C23.5,38.33525 23.164,38 22.75,38 Z" id="Shape"></path>
                    <path d="M38.5,22 L37.75,22 C37.336,22 37,22.33525 37,22.75 C37,23.16475 37.336,23.5 37.75,23.5 L38.5,23.5 C38.914,23.5 39.25,23.16475 39.25,22.75 C39.25,22.33525 38.914,22 38.5,22 Z" id="Shape"></path>
                    <path d="M6.5,22 L5.75,22 C5.336,22 5,22.33525 5,22.75 C5,23.16475 5.336,23.5 5.75,23.5 L6.5,23.5 C6.914,23.5 7.25,23.16475 7.25,22.75 C7.25,22.33525 6.914,22 6.5,22 Z" id="Shape"></path>
                    <path d="M33.7501875,10.2196563 L33.2199375,10.7499063 C32.9266875,11.0431563 32.9266875,11.5171563 33.2199375,11.8104063 C33.3661875,11.9566563 33.5581875,12.0301563 33.7501875,12.0301563 C33.9421875,12.0301563 34.1341875,11.9566563 34.2804375,11.8104063 L34.8106875,11.2801563 C35.1039375,10.9869063 35.1039375,10.5129063 34.8106875,10.2196563 C34.5174375,9.92640634 34.0434375,9.92715634 33.7501875,10.2196563 Z" id="Shape"></path>
                    <path d="M10.7501875,33.2196563 L10.2199375,33.7499063 C9.9266875,34.0431563 9.9266875,34.5171563 10.2199375,34.8104063 C10.3661875,34.9566563 10.5581875,35.0301563 10.7501875,35.0301563 C10.9421875,35.0301563 11.1341875,34.9566563 11.2804375,34.8104063 L11.8106875,34.2801563 C12.1039375,33.9869063 12.1039375,33.5129063 11.8106875,33.2196563 C11.5174375,32.9264063 11.0426875,32.9271563 10.7501875,33.2196563 Z" id="Shape"></path>
                    <path d="M34.2804375,33.2199375 C33.9871875,32.9266875 33.5131875,32.9266875 33.2199375,33.2199375 C32.9266875,33.5131875 32.9266875,33.9871875 33.2199375,34.2804375 L33.7501875,34.8106875 C33.8964375,34.9569375 34.0884375,35.0304375 34.2804375,35.0304375 C34.4724375,35.0304375 34.6644375,34.9569375 34.8106875,34.8106875 C35.1039375,34.5174375 35.1039375,34.0434375 34.8106875,33.7501875 L34.2804375,33.2199375 Z" id="Shape"></path>
                    <path d="M11.2804375,10.2199375 C10.9871875,9.9266875 10.5131875,9.9266875 10.2199375,10.2199375 C9.9266875,10.5131875 9.9266875,10.9871875 10.2199375,11.2804375 L10.7501875,11.8106875 C10.8964375,11.9569375 11.0884375,12.0304375 11.2804375,12.0304375 C11.4724375,12.0304375 11.6644375,11.9569375 11.8106875,11.8106875 C12.1039375,11.5174375 12.1039375,11.0434375 11.8106875,10.7501875 L11.2804375,10.2199375 Z" id="Shape"></path>
                </g>
            </g>
        </g>
    </g>
</svg>