<?xml version="1.0" encoding="UTF-8"?>
<svg width="46px" height="40px" viewBox="0 0 46 40" version="1.1" xmlns="http://www.w3.org/2000/svg" xmlns:xlink="http://www.w3.org/1999/xlink">
    <!-- Generator: Sketch 46.2 (44496) - http://www.bohemiancoding.com/sketch -->
    <title>icon-feature-cloud</title>
    <desc>Created with Sketch.</desc>
    <defs></defs>
    <g id="Page-1" stroke="none" stroke-width="1" fill="none" fill-rule="evenodd">
        <g id="Artboard" transform="translate(-36.000000, -352.000000)" fill-rule="nonzero" fill="#0086F3">
            <g id="icon-feature-cloud" transform="translate(35.767623, 351.480181)">
                <path d="M33.0419352,28.3493067 L31.9706062,28.1437955 C31.468328,28.0473462 31.072886,27.7186767 30.8859228,27.2416238 C30.6982176,26.7653127 30.7649902,26.2556153 31.0676926,25.8431092 L31.7406118,24.9260991 C31.9572517,24.6308159 31.9260912,24.2212774 31.66642,23.9623482 L30.2130036,22.5096736 C29.9614935,22.2581636 29.5660515,22.2210677 29.2722521,22.4199016 L28.3693384,23.0312417 C27.9464454,23.3198476 27.4330385,23.3665884 26.9634047,23.1610772 C26.4945128,22.9570499 26.1806817,22.5489953 26.1027803,22.0422656 L25.9299135,20.9182605 C25.8750116,20.5569466 25.5634063,20.2898563 25.1976409,20.2898563 L23.1425293,20.2898563 C22.7871508,20.2898563 22.4807388,20.5428502 22.4139663,20.8922934 L22.1483598,22.2759696 C22.0541363,22.767119 21.7343698,23.1588515 21.2721552,23.3502662 C20.8091986,23.5431648 20.3061785,23.4904886 19.8921885,23.2100438 L18.7258941,22.4206435 C18.4313529,22.2218096 18.0373946,22.2589055 17.7851427,22.5104155 L16.3317262,23.9630901 C16.072055,24.2220193 16.0408945,24.6308159 16.2575344,24.926841 L16.9304536,25.8438511 C17.233156,26.2563573 17.2999286,26.7660546 17.1122234,27.2423657 C16.9252602,27.7194187 16.5298182,28.0480881 16.02754,28.1445374 L14.956211,28.3500486 C14.6075098,28.4168212 14.3545159,28.7224912 14.3545159,29.0786116 L14.3545159,31.1337232 C14.3545159,31.4994886 14.6216062,31.811094 14.983662,31.8667378 L16.1076671,32.0396046 C16.6143968,32.1175059 17.0217095,32.431337 17.2264787,32.9002289 C17.431248,33.3698627 17.3837653,33.8817858 17.0966432,34.3061627 L16.4853031,35.2090763 C16.2857273,35.5028757 16.3235651,35.8983177 16.5750751,36.1498278 L18.0277497,37.6032443 C18.285937,37.8614316 18.6947336,37.893334 18.9915006,37.677436 L19.9085107,37.0045168 C20.3202749,36.7018145 20.832198,36.6350419 21.3070253,36.822747 C21.7840783,37.0097102 22.1127477,37.4051523 22.209197,37.9074305 L22.4147082,38.9787594 C22.4814808,39.3267187 22.7871508,39.5797126 23.1432712,39.5797126 L25.1983828,39.5797126 C25.5641482,39.5797126 25.8757536,39.3126223 25.9313974,38.9505665 L26.0530718,38.1604244 C26.1309732,37.6499851 26.4626103,37.2285759 26.9381795,37.0312258 C27.4152325,36.8338758 27.9479293,36.8984226 28.3634031,37.2033507 L29.0081295,37.6766941 C29.3041546,37.893334 29.713693,37.8614316 29.9718804,37.6025024 L31.4245549,36.1490859 C31.676065,35.8975758 31.7139028,35.5028757 31.5143269,35.2083344 L30.9029869,34.3054208 C30.6158648,33.8817858 30.5683821,33.3691208 30.7731513,32.899487 C30.9771786,32.4305951 31.3852333,32.116764 31.891963,32.0388626 L33.0159681,31.8659959 C33.3772819,31.810352 33.6443722,31.4987467 33.6443722,31.1329813 L33.6443722,29.0778697 C33.6443722,28.7224912 33.3913783,28.4168212 33.0419352,28.3493067 Z M32.1605371,30.497158 L31.6656781,30.5735755 C30.6611218,30.7278943 29.8190453,31.3763303 29.4132164,32.3074368 C29.0066456,33.2392852 29.1045787,34.2972597 29.6743714,35.1378523 L29.9422036,35.5332943 L29.372411,36.103087 L29.2410916,36.0066377 C28.4027247,35.39233 27.3313958,35.2632363 26.3706126,35.6601622 C25.4105712,36.05783 24.7443293,36.9080675 24.5863009,37.9341395 L24.5618176,38.0958775 L23.7560951,38.0958775 L23.6663231,37.6262437 C23.4741664,36.6276227 22.79457,35.8107715 21.849367,35.4398127 C20.9026802,35.0688539 19.8491573,35.2068506 19.0300803,35.80632 L18.6264772,36.1023451 L18.0566845,35.5325524 L18.3245167,35.1371103 C18.8943094,34.2957758 18.9915006,33.2378014 18.5856717,32.3066949 C18.1798428,31.3755884 17.3370245,30.7271524 16.33321,30.5728336 L15.838351,30.497158 L15.838351,29.6914355 L16.3079848,29.6016635 C17.3066058,29.4095068 18.1234571,28.7299104 18.4944158,27.7847074 C18.8653746,26.8387625 18.7281199,25.7852396 18.1279086,24.9654207 L17.8318835,24.5618176 L18.4016761,23.9920249 L19.0612409,24.4386593 C19.8832855,24.9965813 20.9241958,25.1011916 21.8412059,24.7213298 C22.7589579,24.3407261 23.4192645,23.5312941 23.6069697,22.5556725 L23.7560951,21.7736914 L24.5618176,21.7736914 L24.6382351,22.2685504 C24.7925539,23.2731068 25.4409899,24.1151832 26.3720964,24.5210121 C27.3039448,24.9275829 28.3619193,24.8296498 29.2025119,24.2598571 L29.5979539,23.9920249 L30.1677466,24.5618176 L29.8717215,24.9654207 C29.2707683,25.7844977 29.1342554,26.8380206 29.5052142,27.7847074 C29.876173,28.7299104 30.6937661,29.4095068 31.6916452,29.6016635 L32.1605371,29.6914355 L32.1605371,30.497158 Z" id="Shape"></path>
                <path d="M23.9994441,26.2251967 C21.9539774,26.2251967 20.2898563,27.8893178 20.2898563,29.9347845 C20.2898563,31.9802512 21.9539774,33.6443722 23.9994441,33.6443722 C26.0449108,33.6443722 27.7090318,31.9802512 27.7090318,29.9347845 C27.7090318,27.8893178 26.0449108,26.2251967 23.9994441,26.2251967 Z M23.9994441,32.1605371 C22.7723124,32.1605371 21.7736914,31.1619161 21.7736914,29.9347845 C21.7736914,28.7076528 22.7723124,27.7090318 23.9994441,27.7090318 C25.2265757,27.7090318 26.2251967,28.7076528 26.2251967,29.9347845 C26.2251967,31.1619161 25.2265757,32.1605371 23.9994441,32.1605371 Z" id="Shape"></path>
                <path d="M38.8199891,13.0146128 C38.4275147,6.33735486 32.9232284,1 26.2875178,1 C22.2589055,1 18.357903,2.97572644 15.9414776,6.19935819 C15.8858337,6.17042341 15.8272222,6.15039164 15.7708365,6.1236826 C15.6239368,6.05245852 15.4748114,5.98494402 15.3227183,5.92410678 C15.2381397,5.89072049 15.1535611,5.86030187 15.0682406,5.83062517 C14.9176313,5.77794903 14.7647963,5.73120822 14.6089936,5.68891892 C14.5236731,5.66591948 14.4390945,5.64217811 14.3530321,5.62288826 C14.1861006,5.58505046 14.0154596,5.55611568 13.8433347,5.53014856 C13.768401,5.5190198 13.6949512,5.50418145 13.6192756,5.49602036 C13.372959,5.46856941 13.1236747,5.4515053 12.8706808,5.4515053 C9.18854401,5.4515053 6.19342285,8.44662646 6.19342285,12.1287633 C6.19342285,12.2244706 6.19935819,12.3179522 6.20603545,12.4114338 C3.11965844,14.0933609 1,17.6182112 1,21.1460292 C1,26.4010312 5.27492893,30.676702 10.5299309,30.676702 C10.9402113,30.676702 11.2718485,30.3450649 11.2718485,29.9347845 C11.2718485,29.5245041 10.9402113,29.1928669 10.5299309,29.1928669 C6.09326398,29.1928669 2.4838351,25.583438 2.4838351,21.1460292 C2.4838351,18.0641037 4.49072208,14.8649552 7.2565907,13.5391485 L7.67725796,13.3380889 L7.67725796,12.8706808 C7.67725796,12.7816507 7.6831933,12.6911368 7.68838672,12.5998809 L7.69654781,12.4626262 L7.68690288,12.3186942 C7.68245138,12.2556312 7.67725796,12.1925682 7.67725796,12.1287633 C7.67725796,9.26570343 10.007621,6.9353404 12.8706808,6.9353404 C13.0999333,6.9353404 13.3262182,6.95537218 13.5510192,6.98504888 C13.6088888,6.99246806 13.6667583,7.00211298 13.723886,7.01175791 C13.921978,7.04440228 14.1171023,7.0874335 14.3092589,7.14307732 C14.3352261,7.15049649 14.3619351,7.15568992 14.3879022,7.16310909 C14.5993487,7.22765592 14.8056018,7.30926685 15.0074034,7.40126463 C15.0600795,7.42500599 15.1112718,7.4509731 15.163206,7.4761983 C15.3412663,7.56448649 15.5156169,7.66093577 15.6840322,7.76999765 C17.1137073,8.69591075 18.0641037,10.3021622 18.0641037,12.1287633 C18.0641037,12.5390437 18.3957408,12.8706808 18.8060212,12.8706808 C19.2163016,12.8706808 19.5479388,12.5390437 19.5479388,12.1287633 C19.5479388,10.0855223 18.6235095,8.25669556 17.1738026,7.03104777 C19.3008802,4.24885695 22.803473,2.4838351 26.2875178,2.4838351 C32.0336692,2.4838351 36.8064248,7.03549927 37.3042515,12.787586 C36.5467537,12.734168 35.4108779,12.706717 34.2750021,12.8795838 C33.8699152,12.941163 33.5916961,13.3195409 33.6532752,13.7246279 C33.7089191,14.0918771 34.0249759,14.3552578 34.3855479,14.3552578 C34.4226437,14.3552578 34.4604815,14.3522902 34.4975774,14.3463548 C36.1505697,14.0970705 37.8718184,14.3307745 37.9727192,14.344871 C41.4270873,15.001468 44.0312179,18.1835524 44.0312179,21.7529177 C44.0312179,25.8549799 40.6933309,29.1928669 36.5912687,29.1928669 C36.1809883,29.1928669 35.8493512,29.5245041 35.8493512,29.9347845 C35.8493512,30.3450649 36.1809883,30.676702 36.5912687,30.676702 C41.5116659,30.676702 45.515053,26.6733149 45.515053,21.7529177 C45.515053,17.6805323 42.6757346,14.0280722 38.8199891,13.0146128 Z" id="Shape"></path>
            </g>
        </g>
    </g>
</svg>