<?xml version="1.0" encoding="UTF-8"?>
<svg width="46px" height="48px" viewBox="0 0 46 48" version="1.1" xmlns="http://www.w3.org/2000/svg" xmlns:xlink="http://www.w3.org/1999/xlink">
    <!-- Generator: Sketch 46.2 (44496) - http://www.bohemiancoding.com/sketch -->
    <title>icon-feature-mobile</title>
    <desc>Created with Sketch.</desc>
    <defs></defs>
    <g id="Page-1" stroke="none" stroke-width="1" fill="none" fill-rule="evenodd">
        <g id="Artboard" transform="translate(-36.000000, -674.000000)" fill-rule="nonzero" fill="#0086F3">
            <g id="icon-feature-mobile" transform="translate(36.267623, 674.091019)">
                <g id="Group-4">
                    <path d="M20.7517041,3.93015306 L13.8051735,3.93015306 C13.3818061,3.93015306 13.0385204,4.27334694 13.0385204,4.69680612 C13.0385204,5.12026531 13.3818061,5.46345918 13.8051735,5.46345918 L20.7517041,5.46345918 C21.1750714,5.46345918 21.5183571,5.12026531 21.5183571,4.69680612 C21.5183571,4.27334694 21.1750714,3.93015306 20.7517041,3.93015306 Z" id="Shape"></path>
                    <path d="M27.5786633,3.93015306 L26.6476224,3.93015306 C26.2242551,3.93015306 25.8809694,4.27334694 25.8809694,4.69680612 C25.8809694,5.12026531 26.2242551,5.46345918 26.6476224,5.46345918 L27.5786633,5.46345918 C28.0020306,5.46345918 28.3453163,5.12026531 28.3453163,4.69680612 C28.3453163,4.27334694 28.0021224,3.93015306 27.5786633,3.93015306 Z" id="Shape"></path>
                    <path d="M19.476,41.7616531 L15.0807857,41.7616531 C14.6574184,41.7616531 14.3141327,42.1048469 14.3141327,42.5283061 C14.3141327,42.9517653 14.6574184,43.2949592 15.0807857,43.2949592 L19.476,43.2949592 C19.8993673,43.2949592 20.2426531,42.9517653 20.2426531,42.5283061 C20.2426531,42.1048469 19.8993673,41.7616531 19.476,41.7616531 Z" id="Shape"></path>
                    <path d="M44.225449,39.6305306 C44.6488163,39.6305306 44.992102,39.2873367 44.992102,38.8638776 L44.992102,18.9067959 C44.992102,16.5393367 43.0659184,14.6130612 40.6983673,14.6130612 L34.5488878,14.6130612 L34.5488878,3.02482653 C34.5487041,1.35688776 33.1917245,0 31.5239694,0 L3.03290816,0 C1.36496939,0 0.00808163265,1.35688776 0.00808163265,3.02482653 L0.00808163265,34.4287143 C0.00808163265,34.8521735 1.54138776,34.8521735 1.54138776,34.4287143 L1.54138776,8.66654082 L33.0154898,8.66654082 L33.0154898,14.6130612 L29.006449,14.6130612 C26.6388061,14.6130612 24.7127143,16.5392449 24.7127143,18.9067959 L24.7127143,37.787602 L1.54129592,37.787602 L1.54129592,34.0446122 C1.54129592,33.6211531 0.00798979592,33.6211531 0.00798979592,34.0446122 L0.00798979592,43.9956735 C0.00798979592,45.6636122 1.36496939,47.0205918 3.03290816,47.0205918 L28.9397755,47.0205918 L40.6981837,47.0205918 C43.0658265,47.0205918 44.9919184,45.0944082 44.9919184,42.7268571 L44.9919184,37.967051 C44.9919184,37.5435918 44.6486327,37.200398 44.2252653,37.200398 C43.801898,37.200398 43.4586122,37.5435918 43.4586122,37.967051 L43.4586122,40.2612245 L26.2460204,40.2612245 L26.2460204,20.9879082 L43.4587959,20.9879082 L43.4587959,38.8638776 C43.4587959,39.2873367 43.8019898,39.6305306 44.225449,39.6305306 Z M3.03290816,45.487102 C2.21041837,45.487102 1.54129592,44.8179796 1.54129592,43.9954898 L1.54129592,39.3208163 L24.7126224,39.3208163 L24.7126224,42.7266735 C24.7126224,43.777102 25.0923673,44.740102 25.7209898,45.487102 L3.03290816,45.487102 L3.03290816,45.487102 Z M26.2461122,41.7943469 L43.4587959,41.7943469 L43.4587959,42.7266735 C43.4587959,44.2487755 42.2203776,45.487102 40.6983673,45.487102 L29.0065408,45.487102 C27.4844388,45.487102 26.2461122,44.2487755 26.2461122,42.7266735 L26.2461122,41.7943469 Z M1.54129592,7.13323469 L1.54129592,3.02482653 C1.54129592,2.20233673 2.21041837,1.53321429 3.03290816,1.53321429 L31.5238776,1.53321429 C32.3463673,1.53321429 33.0154898,2.20233673 33.0154898,3.02482653 L33.0154898,7.13323469 L1.54129592,7.13323469 Z M43.4587041,19.4546939 L26.2460204,19.4546939 L26.2460204,18.9067959 C26.2460204,17.3846939 27.4844388,16.1463673 29.006449,16.1463673 L40.6982755,16.1463673 C42.2203776,16.1463673 43.4587041,17.3846939 43.4587041,18.9067959 L43.4587041,19.4546939 Z" id="Shape"></path>
                    <path d="M37.7600051,17.1312581 L31.9447194,17.1312581 C31.521352,17.1312581 31.1780663,17.4744519 31.1780663,17.8979111 C31.1780663,18.3213703 31.521352,18.6645642 31.9447194,18.6645642 L37.7600051,18.6645642 C38.1833724,18.6645642 38.5266582,18.3213703 38.5266582,17.8979111 C38.5266582,17.4744519 38.1834643,17.1312581 37.7600051,17.1312581 Z" id="Shape"></path>
                    <path d="M35.890898,42.9585612 L33.8138265,42.9585612 C33.3904592,42.9585612 33.0471735,43.3017551 33.0471735,43.7252143 C33.0471735,44.1486735 33.3904592,44.4918673 33.8138265,44.4918673 L35.890898,44.4918673 C36.3142653,44.4918673 36.657551,44.1486735 36.657551,43.7252143 C36.657551,43.3017551 36.3142653,42.9585612 35.890898,42.9585612 Z" id="Shape"></path>
                </g>
            </g>
        </g>
    </g>
</svg>