<?xml version="1.0" encoding="UTF-8"?>
<svg width="100px" height="109px" viewBox="0 0 100 109" version="1.1" xmlns="http://www.w3.org/2000/svg" xmlns:xlink="http://www.w3.org/1999/xlink">
    <!-- Generator: Sketch 46.2 (44496) - http://www.bohemiancoding.com/sketch -->
    <title>logo-login</title>
    <desc>Created with Sketch.</desc>
    <defs></defs>
    <g id="Page-1" stroke="none" stroke-width="1" fill="none" fill-rule="evenodd">
        <g id="Desktop-HD" transform="translate(-84.000000, -79.000000)" fill="#FFFFFF">
            <g id="logo-login" transform="translate(84.000000, 79.000000)">
                <path d="M85.0215579,30.6399464 C93.1682105,32.5926826 99.0291262,39.7670438 99.0291262,48.284167 C99.0291262,54.6008798 94.1957344,64.8660499 83.4510581,67.9056865 L82.3429441,63.8692129 C90.9116875,61.4436443 94.9029126,53.1353042 94.9029126,48.284167 C94.9029126,41.0504459 89.355291,35.0714705 81.9984214,34.3775736 L79.117325,34.1053368 L80.3090512,31.4259534 C81.5692791,28.5910062 82.1132623,25.5861667 81.9258903,22.4953578 C81.3184423,12.4840025 72.4867737,4.27391329 62.2367192,4.19203756 C52.8530084,4.13472455 44.6479279,10.555829 42.6543301,19.498706 L41.7416471,23.5986333 L39.0680702,20.3911515 C36.1033616,16.8336508 31.5238286,14.9709779 26.8395285,15.4253882 C21.5558395,15.9268771 16.9470926,19.5089404 15.0965422,24.5524856 C14.132483,27.1766029 14.0327528,29.8928303 14.7993662,32.6254329 L15.3322683,34.5208562 L13.5028728,35.1779089 C7.89480857,37.1900051 4.12621359,42.4566617 4.12621359,48.284167 C4.12621359,55.3152456 11.2624241,62.8293911 18.6223159,63.7463993 L18.1206424,67.9056865 C8.70671031,66.7348636 0,57.4255926 0,48.284167 C0,41.29812 4.1171472,34.9425162 10.4142569,31.9376768 C9.89646541,28.9471656 10.168457,25.9771234 11.2302317,23.08691 C13.6308096,16.5470858 19.6055588,11.9006379 26.4537034,11.2497258 C31.2729919,10.7932686 36.0036313,12.2301877 39.6674591,15.1756672 C43.1852174,6.18775857 52.094454,0 62.2689553,0 C74.6415518,0.0982508803 85.3066454,10.074809 86.0440449,22.2374492 C86.2193284,25.1153813 85.875813,27.9319065 85.0215579,30.6399464 Z M29.9426215,54.1655622 C40.7195802,43.3767607 58.2706272,43.3767607 69.0475858,54.1655622 C70.2555526,55.3853718 70.2555526,57.3512785 69.0475858,58.5592453 C68.4436024,59.1632287 67.6501341,59.4711418 66.8566657,59.4711418 C66.0631973,59.4711418 65.2697289,59.1632287 64.6657455,58.5592453 C56.3047204,50.1982203 42.6973298,50.1982203 34.3363047,58.5592453 C33.1164951,59.7672121 31.1505883,59.7672121 29.9426215,58.5592453 C28.7346548,57.3394357 28.7346548,55.373529 29.9426215,54.1655622 Z M38.3273322,62.5502729 C44.4855943,56.3920108 54.5046131,56.3920108 60.6510323,62.5621157 C61.8589991,63.7700825 61.8589991,65.7359892 60.6510323,66.943956 C60.0470489,67.5479394 59.2535806,67.8558525 58.4601122,67.8558525 C57.6666438,67.8558525 56.8731754,67.5479394 56.269192,66.943956 C52.5387063,63.2016275 46.4515011,63.2016275 42.7210154,66.943956 C41.5012058,68.1519228 39.535299,68.1519228 38.3273322,66.943956 C37.1193654,65.7241464 37.1193654,63.7582397 38.3273322,62.5502729 Z M49.4951037,77.8393428 C47.2124328,77.8393428 45.3619624,75.9888724 45.3619624,73.7062015 C45.3619624,71.4235306 47.2124328,69.5730602 49.4951037,69.5730602 C51.7777746,69.5730602 53.628245,71.4235306 53.628245,73.7062015 C53.628245,75.9888724 51.7777746,77.8393428 49.4951037,77.8393428 Z M77.5625675,45.6387377 C78.7705343,46.8585473 78.7705343,48.8244541 77.5625675,50.0324209 C76.9585841,50.6364043 76.1651157,50.9443174 75.3716473,50.9443174 C74.5781789,50.9443174 73.7847105,50.6364043 73.1807271,50.0324209 C60.1181058,36.9697996 38.8721016,36.9697996 25.8213231,50.0324209 C24.6015135,51.2403877 22.6356067,51.2403877 21.4276399,50.0324209 C20.2196731,48.8126113 20.2196731,46.8467045 21.4276399,45.6387377 C36.9061948,30.1720256 62.0840126,30.1720256 77.5625675,45.6387377 Z" id="Combined-Shape" fill-rule="nonzero"></path>
                <path d="M10.3105745,108.56792 L12.8582491,108.56792 L12.8582491,92.0160825 L10.3219481,92.0160825 L6,95.0901589 L6,97.7168884 L10.1172242,94.7804572 L10.3105745,94.7804572 L10.3105745,108.56792 Z M15.7932451,96.7992537 L15.7932451,96.833665 L18.2044372,96.833665 L18.2044372,96.7992537 C18.2044372,95.0328067 19.4214067,93.8398816 21.2298008,93.8398816 C22.9244594,93.8398816 24.2096702,94.9754546 24.2096702,96.4895519 C24.2096702,97.705418 23.6751135,98.577171 21.4800188,100.882728 L15.9297277,106.709709 L15.9297277,108.56792 L26.9848158,108.56792 L26.9848158,106.262362 L19.4782745,106.262362 L19.4782745,106.067365 L23.1291832,102.339474 C25.8815817,99.5292171 26.7232242,98.0954128 26.7232242,96.3404363 C26.7232242,93.6104729 24.4257676,91.6146173 21.3094156,91.6146173 C18.0793281,91.6146173 15.7932451,93.7481181 15.7932451,96.7992537 Z M32.2172684,101.135078 L34.287254,101.135078 C36.4368545,101.135078 37.7675596,102.201828 37.7675596,103.910923 C37.7675596,105.539725 36.3572397,106.698239 34.3554953,106.698239 C32.3651245,106.698239 31.0002988,105.67737 30.8410691,104.071509 L28.3957564,104.071509 C28.5436125,107.030881 30.9093104,108.969385 34.3554953,108.969385 C37.7789331,108.969385 40.3721019,106.858825 40.3721019,104.048568 C40.3721019,101.834774 39.0072762,100.286266 36.7666874,100.022446 L36.7666874,99.8274484 C38.5750814,99.4145127 39.7010626,97.9462971 39.7010626,95.9963233 C39.7010626,93.507239 37.3581118,91.6146173 34.3100011,91.6146173 C31.0230459,91.6146173 28.884819,93.4613572 28.7142157,96.4551406 L31.1367814,96.4551406 C31.2732639,94.8263389 32.4447393,93.8284111 34.2303863,93.8284111 C36.0160332,93.8284111 37.1875086,94.8378094 37.1875086,96.3748476 C37.1875086,97.9348267 35.9705391,99.0130475 34.2076392,99.0130475 L32.2172684,99.0130475 L32.2172684,101.135078 Z M66.7517705,91.5457946 L61.444115,91.5457946 L59.3362175,103.21505 L59.0480876,103.21505 L56.4700835,91.5457946 L51.3595695,91.5457946 L48.8118949,103.21505 L48.523765,103.21505 L46.4158675,91.5457946 L40.9868942,91.5457946 L45.3846659,108.56792 L51.0714396,108.56792 L53.6797732,97.3574815 L53.9679031,97.3574815 L56.6065661,108.56792 L62.3843282,108.56792 L66.7517705,91.5457946 Z M68.0274368,108.56792 L68.0274368,91.5457946 L73.3957512,91.5457946 L73.3957512,108.56792 L68.0274368,108.56792 Z M70.8283082,90.3729482 C69.3451702,90.3729482 68.1428493,89.1701728 68.1428493,87.6864741 C68.1428493,86.2027754 69.3451702,85 70.8283082,85 C72.3114462,85 73.5137671,86.2027754 73.5137671,87.6864741 C73.5137671,89.1701728 72.3114462,90.3729482 70.8283082,90.3729482 Z M90.3145411,90.3729482 C88.8314031,90.3729482 87.6290821,89.1701728 87.6290821,87.6864741 C87.6290821,86.2027754 88.8314031,85 90.3145411,85 C91.7976791,85 93,86.2027754 93,87.6864741 C93,89.1701728 91.7976791,90.3729482 90.3145411,90.3729482 Z M77.2849168,108.56792 L82.6380665,108.56792 L82.6380665,95.7975024 L85.9439777,95.7975024 L85.9439777,91.7752033 L82.501584,91.7752033 L82.501584,90.5516903 C82.501584,89.2517077 83.0930084,88.6399512 84.7156345,88.6399512 C85.3373885,88.6399512 85.8226598,88.685833 86.0804602,88.7317147 L86.0804602,85.168233 C85.3980474,85.0611757 84.579152,85 83.5327856,85 C79.0136961,85 77.2849168,86.7435061 77.2849168,90.1234608 L77.2849168,91.7752033 L74.5855949,91.7752033 L74.5855949,95.7975024 L77.2849168,95.7975024 L77.2849168,108.56792 Z M87.6290821,108.56792 L92.9973966,108.56792 L92.9973966,91.5457946 L87.6290821,91.5457946 L87.6290821,108.56792 Z" id="123wifi"></path>
            </g>
        </g>
    </g>
</svg>